<svg width="595" height="317" viewBox="0 0 595 317" fill="none" xmlns="http://www.w3.org/2000/svg">
<g clip-path="url(#clip0_5007_356112)">
<path d="M0 0H595V317H0V0Z" fill="#EBD1AB"/>
<path d="M3 25H61.8738C82.6658 28.7636 114.037 43.1722 138.264 73.1906C154.659 93.5029 168.219 121.763 168.141 155.436C168.049 194.893 153.993 220.525 138.251 243.315C110.293 275.237 83.032 287.682 61.8635 291.924H3V158.462V25Z" fill="#DDBB90"/>
<path d="M592.141 291.925L532.267 291.925C511.475 288.161 480.105 273.752 455.877 243.734C439.482 223.422 425.922 195.162 426 161.488C426.092 122.031 440.148 96.3998 455.89 73.6091C483.848 41.6876 511.109 29.2429 532.278 25.0001L592.141 25.0001L591.141 158.462L592.141 291.925Z" fill="#DDBB90"/>
<path fill-rule="evenodd" clip-rule="evenodd" d="M120 123V194.574C125.423 194.348 133.697 192.034 140.694 186.806C148.082 181.287 154.017 172.55 153.701 159.566C153.355 145.314 147.752 136.314 140.784 130.801C134.08 125.496 126.035 123.361 120 123Z" fill="#EBD1AB"/>
<path fill-rule="evenodd" clip-rule="evenodd" d="M475.713 194.574L475.713 123C470.29 123.226 462.017 125.54 455.019 130.768C447.632 136.287 441.697 145.024 442.012 158.008C442.358 172.26 447.961 181.26 454.929 186.773C461.634 192.078 469.678 194.213 475.713 194.574Z" fill="#EBD1AB"/>
<path d="M475.74 121.923H593.699V195.73H475.74V121.923Z" fill="#EBD1AB"/>
<path fill-rule="evenodd" clip-rule="evenodd" d="M554.928 135.204H565.51V133.027H554.782L554.71 133.036C546.421 134.151 533.878 141.48 532.567 159.034L532.565 159.057L532.564 159.08C532.451 162.573 533.738 168.145 537.14 173.229C540.565 178.35 546.16 183.01 554.662 184.552L554.757 184.569H565.51V182.392H554.952C547.154 180.951 542.069 176.693 538.94 172.015C535.781 167.295 534.64 162.182 534.731 159.174C535.957 142.898 547.463 136.24 554.928 135.204Z" fill="#6E5B49" fill-opacity="0.8"/>
<rect width="4" height="5.22528" transform="matrix(-1 0 0 1 545.214 196.383)" fill="#786450"/>
<rect width="1.25" height="5.22528" transform="matrix(-1 0 0 1 531.614 196.383)" fill="#786450"/>
<rect width="1.25" height="5.22528" transform="matrix(-1 0 0 1 520.764 196.383)" fill="#786450"/>
<rect width="1.25" height="5.22528" transform="matrix(-1 0 0 1 509.915 196.383)" fill="#786450"/>
<rect width="4" height="5.22528" transform="matrix(-1 0 0 1 545.214 115.827)" fill="#786450"/>
<rect width="1.25" height="5.22528" transform="matrix(-1 0 0 1 531.614 115.827)" fill="#786450"/>
<rect width="1.25" height="5.22528" transform="matrix(-1 0 0 1 520.764 115.827)" fill="#786450"/>
<rect width="1.25" height="5.22528" transform="matrix(-1 0 0 1 509.915 115.827)" fill="#786450"/>
<path d="M119.26 121.923H1.30078V195.73H119.26V121.923Z" fill="#EBD1AB"/>
<path fill-rule="evenodd" clip-rule="evenodd" d="M40.0786 135.204H29.4961V133.027H40.2243L40.2959 133.036C48.5851 134.151 61.1283 141.48 62.4395 159.034L62.4412 159.057L62.442 159.08C62.5554 162.573 61.2682 168.145 57.8667 173.229C54.4409 178.35 48.8458 183.01 40.3447 184.552L40.2492 184.569H29.4961V182.392H40.054C47.8525 180.951 52.9376 176.693 56.0668 172.015C59.225 167.295 60.3666 162.182 60.2755 159.174C59.0492 142.898 47.5434 136.24 40.0786 135.204Z" fill="#6E5B49" fill-opacity="0.8"/>
<rect x="49.8721" y="196.383" width="4" height="5.22528" fill="#786450"/>
<rect x="63.4722" y="196.383" width="1.25" height="5.22528" fill="#786450"/>
<rect x="74.3223" y="196.383" width="1.25" height="5.22528" fill="#786450"/>
<rect x="85.1719" y="196.383" width="1.25" height="5.22528" fill="#786450"/>
<rect x="49.8721" y="115.827" width="4" height="5.22528" fill="#786450"/>
<rect x="63.4722" y="115.827" width="1.25" height="5.22528" fill="#786450"/>
<rect x="74.3223" y="115.827" width="1.25" height="5.22528" fill="#786450"/>
<rect x="85.1719" y="115.827" width="1.25" height="5.22528" fill="#786450"/>
<path fill-rule="evenodd" clip-rule="evenodd" d="M402.363 2.1772H191.164V14.1518H188.562V2.1772H2.16837V22.8606H62.0669L62.1617 22.8776C83.4364 26.7015 115.339 41.3652 139.949 71.8576C156.583 92.467 170.389 121.198 170.31 155.479C170.217 195.588 155.877 221.663 139.998 244.646L139.962 244.697L139.921 244.744C111.603 277.095 83.8646 289.796 62.1818 294.119L62.0773 294.139H2.16837V314.823H592.832V294.139H532.923L532.818 294.119C511.135 289.796 483.397 277.095 455.079 244.744L455.038 244.697L455.002 244.646C439.123 221.663 424.783 195.588 424.69 155.479C424.611 121.198 438.417 92.467 455.051 71.8576C479.661 41.3652 511.564 26.7015 532.838 22.8776L532.933 22.8606H592.832V2.1772H404.965V14.1518H402.363V2.1772ZM2.16837 291.962H61.8638C83.0322 287.719 110.294 275.275 138.252 243.353C153.993 220.563 168.05 194.931 168.141 155.474C168.219 121.801 154.659 93.5407 138.265 73.2284C114.037 43.21 82.6661 28.8014 61.8741 25.0378H2.16837V120.834H120.344V120.887C126.706 121.301 135.108 123.558 142.163 129.14C149.654 135.068 155.544 144.683 155.906 159.562C156.241 173.357 149.888 182.727 142.025 188.602C134.771 194.022 126.205 196.492 120.344 196.789V196.819H119.301C119.215 196.819 119.129 196.819 119.044 196.819H2.16837V291.962ZM120.344 194.608V123.069C126.343 123.484 134.23 125.635 140.821 130.85C147.789 136.364 153.392 145.364 153.738 159.615C154.053 172.599 148.118 181.336 140.731 186.856C133.864 191.985 125.769 194.31 120.344 194.608ZM592.832 196.819V291.962H533.136C511.968 287.719 484.706 275.275 456.748 243.353C441.007 220.563 426.95 194.931 426.859 155.474C426.781 121.801 440.341 93.5407 456.735 73.2284C480.963 43.21 512.334 28.8014 533.126 25.0378H592.832V120.834H474.656V120.887C468.294 121.301 459.892 123.558 452.837 129.14C445.346 135.068 439.456 144.683 439.094 159.562C438.759 173.357 445.112 182.727 452.975 188.602C460.229 194.022 468.795 196.492 474.656 196.789V196.819H475.699C475.785 196.819 475.871 196.819 475.956 196.819H592.832ZM474.656 194.608V123.069C468.657 123.484 460.77 125.635 454.179 130.85C447.211 136.364 441.608 145.364 441.262 159.615C440.947 172.599 446.882 181.336 454.269 186.856C461.136 191.985 469.231 194.31 474.656 194.608ZM0 0V317H595V0H0ZM2.3852 194.641V123.012H118.176V194.641H2.3852ZM592.615 194.641V123.012H476.824V194.641H592.615Z" fill="#786450"/>
<path fill-rule="evenodd" clip-rule="evenodd" d="M298.15 119.905V0.87085H295.982V119.929C275.367 120.726 258.9 137.69 258.9 158.5C258.9 179.31 275.367 196.273 295.982 197.071V317H298.15V197.095C319.168 196.747 336.1 179.601 336.1 158.5C336.1 137.399 319.168 120.253 298.15 119.905ZM295.982 122.131C276.583 122.927 261.1 138.905 261.1 158.5C261.1 178.095 276.583 194.073 295.982 194.869V122.131ZM298.15 194.894V122.106C317.953 122.453 333.9 138.614 333.9 158.5C333.9 178.386 317.953 194.547 298.15 194.894Z" fill="#6E5B49" fill-opacity="0.8"/>
</g>
<defs>
<clipPath id="clip0_5007_356112">
<rect width="595" height="317" fill="white"/>
</clipPath>
</defs>
</svg>
