<svg xmlns="http://www.w3.org/2000/svg" viewBox="0 0 594 316.02"><defs><style>.cls-1{fill:#e5cfb3;}.cls-2{fill:#e2c098;}.cls-3{fill:#ad8864;}</style></defs><title>Asset 2</title><g id="Layer_2" data-name="Layer 2"><g id="court"><rect class="cls-1" width="594" height="316"/><rect class="cls-2" x="475" y="108.02" width="119" height="100"/><rect class="cls-2" y="108.02" width="120" height="100"/><path class="cls-3" d="M592,2V314H2V2H592m2-2H0V316H594V0Z"/><path class="cls-3" d="M297,122.11A35.91,35.91,0,1,1,261.09,158,36,36,0,0,1,297,122.11m0-2A37.91,37.91,0,1,0,334.91,158,37.91,37.91,0,0,0,297,120.11Z"/><path class="cls-3" d="M297,141.06a17,17,0,1,1-17,17,17,17,0,0,1,17-17m0-2a19,19,0,1,0,19,19,19,19,0,0,0-19-19Z"/><path class="cls-3" d="M94.65,21c2.79,1.25,21.53,10.1,40,29.72A143.59,143.59,0,0,1,162.35,93c8.35,19.57,12.58,41.45,12.58,65s-4.23,45.47-12.58,65a143.59,143.59,0,0,1-27.68,42.27c-18.5,19.62-37.24,28.47-40,29.72H2V21H94.65m.42-2H0V297H95.07s81.86-34.23,81.86-139S95.07,19,95.07,19Z"/><path class="cls-3" d="M34.62,184.3v-2h5.09c.76-.06,20.41-1.77,20.41-24.28S40.47,133.8,39.64,133.74h-5v-2h5.09c.29,0,22.41,1.89,22.41,26.28S40,184.28,39.78,184.29Z"/><path class="cls-3" d="M118.06,109.47v97.11H2V109.47H118.06m2-2H0V208.57H120.06V107.47Z"/><path class="cls-3" d="M118.06,122.11v71.83H2V122.11H118.06m2-2H0v75.83H120.06V120.11Z"/><path class="cls-3" d="M120,122.16a35.92,35.92,0,0,1,0,71.72V122.16m-2-2.06v75.83a37.91,37.91,0,1,0,0-75.83Z"/><path class="cls-3" d="M114.88,195.73a39.94,39.94,0,0,1-6.06-1l.48-1.94a37.77,37.77,0,0,0,5.76,1Zm-11.89-3a39.29,39.29,0,0,1-5.46-2.83l1.06-1.7a37.25,37.25,0,0,0,5.18,2.69Zm-10.4-6.49a38.74,38.74,0,0,1-4.31-4.39l1.54-1.28a36.69,36.69,0,0,0,4.08,4.16Zm-7.86-9.42a37.3,37.3,0,0,1-2.68-5.54l1.87-.72a35.31,35.31,0,0,0,2.54,5.24ZM80.33,165.4a36.85,36.85,0,0,1-.72-6.12l2-.07a35.08,35.08,0,0,0,.68,5.78Zm1.56-12-2-.26a36.91,36.91,0,0,1,1.31-6l1.91.59A34.8,34.8,0,0,0,81.89,153.4Zm3.41-11.09-1.79-.9a37.88,37.88,0,0,1,3.2-5.25l1.62,1.18A35.87,35.87,0,0,0,85.3,142.31Zm6.83-9.4-1.41-1.42a39,39,0,0,1,4.7-4l1.17,1.62A36.94,36.94,0,0,0,92.14,132.91Zm9.45-6.79-.9-1.79a39.35,39.35,0,0,1,5.7-2.32l.61,1.91A37.28,37.28,0,0,0,101.59,126.12Zm11.09-3.53-.3-2a40.4,40.4,0,0,1,6.13-.47v2A38.4,38.4,0,0,0,112.68,122.59Z"/><rect class="cls-3" x="189.16" y="303.36" width="2" height="12.64"/><rect class="cls-3" x="189.16" y="0.04" width="2" height="12.64"/><rect class="cls-3" x="59.87" y="206.57" width="2" height="6.32"/><rect class="cls-3" x="51.47" y="206.57" width="2" height="6.32"/><rect class="cls-3" x="85.92" y="206.57" width="2" height="6.32"/><rect class="cls-3" x="110.85" y="206.57" width="2" height="6.32"/><rect class="cls-3" x="59.87" y="103.15" width="2" height="6.32"/><rect class="cls-3" x="51.47" y="103.15" width="2" height="6.32"/><rect class="cls-3" x="85.92" y="103.15" width="2" height="6.32"/><rect class="cls-3" x="110.85" y="103.15" width="2" height="6.32"/><path class="cls-3" d="M499.35,21H592V295H499.35c-2.78-1.25-21.52-10.1-40-29.72a143.59,143.59,0,0,1-27.68-42.27c-8.35-19.57-12.58-41.45-12.58-65s4.23-45.47,12.58-65a143.59,143.59,0,0,1,27.68-42.27c18.5-19.62,37.24-28.47,40-29.72m-.42-2s-81.86,34.23-81.86,139,81.86,139,81.86,139H594V19Z"/><path class="cls-3" d="M559.38,184.3v-2h-5.09c-.76-.06-20.41-1.77-20.41-24.28s19.64-24.22,20.48-24.28h5v-2h-5.09c-.29,0-22.41,1.89-22.41,26.28s22.11,26.26,22.33,26.27Z"/><path class="cls-3" d="M475.94,122.11H592v71.83H475.94V122.11m-2-2v75.83H594V120.11Z"/><path class="cls-3" d="M474,122.16v71.72a35.92,35.92,0,0,1,0-71.72m2-2.06a37.91,37.91,0,1,0,0,75.83V120.11Z"/><path class="cls-3" d="M478.94,193.74a37.77,37.77,0,0,0,5.76-1l.48,1.94a39.94,39.94,0,0,1-6.06,1Zm11.29-2.82a37.25,37.25,0,0,0,5.18-2.69l1.06,1.7a39.29,39.29,0,0,1-5.46,2.83Zm9.87-6.15a36.69,36.69,0,0,0,4.08-4.16l1.54,1.28a38.74,38.74,0,0,1-4.31,4.39Zm7.45-8.93a35.31,35.31,0,0,0,2.54-5.24l1.87.72a37.3,37.3,0,0,1-2.68,5.54ZM511.71,165a35.08,35.08,0,0,0,.68-5.78l2,.07a36.85,36.85,0,0,1-.72,6.12Zm-.85-17.29,1.91-.59a36.91,36.91,0,0,1,1.31,6l-2,.26A34.8,34.8,0,0,0,510.87,147.71Zm-5.2-10.38,1.62-1.18a37.88,37.88,0,0,1,3.2,5.25l-1.79.9A35.87,35.87,0,0,0,505.66,137.34Zm-8.25-8.19,1.17-1.62a39,39,0,0,1,4.7,4l-1.41,1.42A36.94,36.94,0,0,0,497.41,129.14ZM487,123.92l.61-1.91a39.35,39.35,0,0,1,5.7,2.32l-.9,1.79A37.28,37.28,0,0,0,487,123.92Zm-11.5-1.78v-2a40.4,40.4,0,0,1,6.13.47l-.3,2A38.4,38.4,0,0,0,475.5,122.15Z"/><rect class="cls-3" x="403.46" y="303.36" width="2" height="12.64"/><rect class="cls-3" x="403.46" y="0.04" width="2" height="12.64"/><path class="cls-3" d="M475.94,109.47H592v97.11H475.94V109.47m-2-2V208.57H594V107.47Z"/><rect class="cls-3" x="532.13" y="206.57" width="2" height="6.32"/><rect class="cls-3" x="540.53" y="206.57" width="2" height="6.32"/><rect class="cls-3" x="506.08" y="206.57" width="2" height="6.32"/><rect class="cls-3" x="481.15" y="206.57" width="2" height="6.32"/><rect class="cls-3" x="532.13" y="103.15" width="2" height="6.32"/><rect class="cls-3" x="540.53" y="103.15" width="2" height="6.32"/><rect class="cls-3" x="506.08" y="103.15" width="2" height="6.32"/><rect class="cls-3" x="481.15" y="103.15" width="2" height="6.32"/><rect class="cls-3" x="296" y="0.02" width="2" height="316"/></g></g></svg>